<?xml version="1.0" encoding="UTF-8" standalone="no"?><!DOCTYPE svg PUBLIC "-//W3C//DTD SVG 1.1//EN" "http://www.w3.org/Graphics/SVG/1.1/DTD/svg11.dtd"><svg width="100%" height="100%" viewBox="0 0 1463 805" version="1.1" xmlns="http://www.w3.org/2000/svg" xmlns:xlink="http://www.w3.org/1999/xlink" xml:space="preserve" xmlns:serif="http://www.serif.com/" style="fill-rule:evenodd;clip-rule:evenodd;stroke-linejoin:round;stroke-miterlimit:2;"><g><path d="M853.75,265l0,-54.583l10.417,-0l-0,8.75c1.25,-2.084 5,-10 17.916,-10c5,-0 20,1.666 20,18.75l0,37.083l-10.416,0l-0,-34.583c-0,-3.75 -0.417,-6.667 -2.917,-9.167c-2.5,-2.5 -6.25,-3.75 -10,-3.75c-7.5,-0 -14.583,5.417 -14.583,16.25l-0,31.25l-10.417,0Z" style="fill:#3c3c3b;fill-rule:nonzero;"/><path d="M924.583,239.167c-0.416,11.25 4.584,19.583 15.834,19.583c6.666,0 12.083,-3.333 12.916,-11.25l10.417,0c-0.417,2.917 -0.833,7.083 -4.583,11.25c-2.5,2.5 -7.917,7.083 -19.167,7.083c-17.5,0 -25.833,-10.416 -25.833,-27.916c-0,-10.834 2.083,-19.584 10.833,-25.417c5.417,-3.75 12.083,-4.167 15.417,-4.167c25,0 24.583,21.667 24.166,30.417l-40,0l0,0.417Zm29.584,-7.084c-0,-5 -0.834,-16.25 -13.75,-16.25c-6.667,0 -15,4.167 -15.417,16.25l29.167,0Z" style="fill:#3c3c3b;fill-rule:nonzero;"/><path d="M971.667,210l10,0l-0,-11.25l10.416,-3.333l0,14.583l12.5,0l0,7.5l-12.5,0l0,32.5c0,2.5 0,7.083 7.5,7.083c2.084,0 4.167,-0.416 5,-0.416l0,7.916c-2.083,0.417 -5,0.834 -8.75,0.834c-9.583,-0 -14.166,-2.917 -14.166,-11.667l-0,-36.25l-10,0l-0,-7.5Z" style="fill:#3c3c3b;fill-rule:nonzero;"/><path d="M1011.67,254.167l30,-36.25l-28.334,-0l0,-7.5l40,-0l0,8.333l-30.833,37.917l30.833,-0l0,7.916l-41.666,0l-0,-10.416Z" style="fill:#3c3c3b;fill-rule:nonzero;"/><path d="M1070.42,210.417l13.333,43.333l14.167,-43.333l13.75,-0l12.5,42.916l14.166,-42.916l10.834,-0l-19.584,54.166l-12.083,0l-13.333,-44.583l-14.167,44.583l-12.5,0l-18.333,-54.166l11.25,-0Z" style="fill:#3c3c3b;fill-rule:nonzero;"/><path d="M1166.25,239.167c-0.417,11.25 4.583,19.583 15.833,19.583c6.667,0 12.084,-3.333 12.917,-11.25l10.417,0c-0.417,2.917 -0.834,7.083 -4.584,11.25c-2.5,2.5 -7.916,7.083 -19.166,7.083c-17.5,0 -25.834,-10.416 -25.834,-27.916c0,-10.834 2.084,-19.584 10.834,-25.417c5.416,-3.75 12.083,-4.167 15.416,-4.167c25,0 24.584,21.667 24.167,30.417l-40,0l0,0.417Zm29.583,-7.084c0,-5 -0.833,-16.25 -13.75,-16.25c-6.666,0 -15,4.167 -15.416,16.25l29.166,0Z" style="fill:#3c3c3b;fill-rule:nonzero;"/><path d="M1222.08,221.25c0,-3.75 -0.416,-7.5 -0.416,-11.25l10.416,-0l0.417,10.417c2.083,-7.5 8.75,-10 13.333,-10.834c3.334,-0.416 5.417,-0.416 7.084,-0.416l-0,10c-0.417,-0.417 -1.25,-0.417 -2.084,-0.417l-2.916,0c-12.5,0 -15,7.083 -15,16.667l-0,29.166l-10.417,0l-0,-43.333l-0.417,-0Z" style="fill:#3c3c3b;fill-rule:nonzero;"/><path d="M1264.17,185.833l10.416,0l0,46.667l20.834,-22.083l13.75,-0l-23.75,22.916l25,31.25l-13.75,0l-22.084,-29.166l0,29.166l-10.416,0l-0,-78.75Z" style="fill:#3c3c3b;fill-rule:nonzero;"/><path d="M862.917,345.833l-0,35c-0,5.417 1.25,12.084 11.666,12.084c5.417,-0 10,-1.667 12.917,-6.25c2.5,-3.334 2.5,-7.5 2.5,-10l-0,-30.834l10.833,0l0,44.167c0,1.25 0.417,7.083 0.417,10l-10.833,0l-0.417,-9.167c-2.083,3.75 -5.833,10 -17.917,10c-13.75,0 -20,-7.5 -20,-18.333l0,-36.667l10.834,0Z" style="fill:#3c3c3b;fill-rule:nonzero;"/><path d="M921.667,352.083l-0,-6.25l10.416,0l0,8.75c1.25,-2.083 5,-10 17.917,-10c5,0 20,1.667 20,18.75l0,37.084l-10.833,-0l-0,-34.584c-0,-3.75 -0.417,-6.666 -2.917,-9.166c-2.5,-2.5 -6.25,-3.75 -10,-3.75c-7.5,-0 -14.583,5.416 -14.583,16.25l-0,31.25l-10.417,-0l0,-48.334l0.417,0Z" style="fill:#3c3c3b;fill-rule:nonzero;"/><path d="M987.083,322.083l12.5,0l0,11.25l-12.5,0l0,-11.25Zm0.834,23.75l10.416,0l0,54.584l-10.416,-0l-0,-54.584Z" style="fill:#3c3c3b;fill-rule:nonzero;"/><path d="M1012.5,345.833l11.667,0l17.916,43.334l17.084,-43.334l11.666,0l-24.583,54.584l-10.417,-0l-23.333,-54.584Z" style="fill:#3c3c3b;fill-rule:nonzero;"/><path d="M1089.17,375c-0.417,11.25 4.583,19.583 15.833,19.583c6.667,0 12.083,-3.333 12.917,-11.25l10.416,0c-0.416,2.917 -0.833,7.084 -4.583,11.25c-2.5,2.5 -7.917,7.084 -19.167,7.084c-17.5,-0 -25.833,-10.834 -25.833,-27.917c0,-10.833 2.083,-19.583 10.833,-25.417c5.417,-3.75 12.084,-4.166 15,-4.166c25,-0 24.584,21.666 24.167,30.416l-39.583,0l-0,0.417Zm29.166,-7.083c0,-5.417 -0.833,-16.25 -13.75,-16.25c-6.666,-0 -15,4.166 -15.416,16.25l29.166,-0Z" style="fill:#3c3c3b;fill-rule:nonzero;"/><path d="M1145,357.083c0,-3.75 -0.417,-7.5 -0.417,-11.25l10.417,0l0.417,10.417c2.083,-7.5 8.75,-10 13.333,-10.833c2.917,-0.417 5.417,-0.417 7.083,-0.417l0,10c-0.416,-0.417 -1.25,-0.417 -2.083,-0.417l-2.917,0c-12.5,0 -15.416,7.084 -15.416,16.667l-0,29.167l-10.417,-0l0,-43.334Z" style="fill:#3c3c3b;fill-rule:nonzero;"/><path d="M1195.83,384.167c0,4.166 2.084,10 12.084,10c4.166,-0 7.5,-0.834 9.583,-3.334c1.25,-1.25 1.667,-3.333 1.667,-5c-0,-5.416 -3.75,-6.25 -12.084,-8.333c-11.666,-2.5 -21.25,-5 -21.25,-16.25c0,-10 8.75,-16.667 21.667,-16.667c7.083,0 16.667,2.084 20,8.334c1.25,2.916 1.25,5.833 1.25,7.916l-10.833,0c0.416,-8.333 -7.084,-8.75 -10.834,-8.75c-1.666,0 -11.25,0 -11.25,7.917c0,5 5,6.25 7.917,7.083c15.417,3.75 18.75,4.584 22.083,7.5c2.917,2.917 4.167,6.667 4.167,10c0,6.25 -3.333,11.25 -7.5,13.75c-5,2.917 -10.833,3.75 -16.667,3.75c-11.25,0 -22.083,-4.583 -21.666,-17.5l11.666,0l0,-0.416Z" style="fill:#3c3c3b;fill-rule:nonzero;"/><path d="M1244.17,322.083l12.5,0l-0,11.25l-12.5,0l-0,-11.25Zm1.25,23.75l10.416,0l0,54.584l-10.416,-0l-0,-54.584Z" style="fill:#3c3c3b;fill-rule:nonzero;"/><path d="M1267.5,345.417l10,-0l0,-11.25l10.417,-3.334l-0,14.584l12.5,-0l-0,7.5l-12.5,-0l-0,32.5c-0,2.5 -0,7.083 7.5,7.083c2.083,0 4.166,-0.417 5,-0.417l-0,7.917c-2.084,0.417 -5,0.833 -8.75,0.833c-9.584,0 -14.167,-2.916 -14.167,-11.666l0,-36.25l-10,-0l0,-7.5Z" style="fill:#3c3c3b;fill-rule:nonzero;"/><path d="M1347.08,400.417c-0.833,-2.917 -0.833,-5.417 -0.833,-8.334c-5,9.167 -12.5,10 -17.083,10c-12.917,0 -19.584,-7.083 -19.584,-16.25c0,-4.166 1.667,-11.25 9.584,-15.833c5.833,-3.333 15,-3.75 19.166,-3.75c2.5,0 4.167,0 7.5,0.417c0,-6.667 0,-9.584 -2.083,-12.084c-2.083,-2.5 -6.667,-3.75 -9.583,-3.75c-10.417,0 -11.25,7.084 -11.25,9.167l-10.417,0c0.417,-2.917 0.833,-6.667 3.75,-10.417c4.167,-4.583 12.083,-5.833 17.917,-5.833c7.916,-0 16.666,2.5 19.583,7.917c1.667,3.333 2.083,5.833 2.083,8.333l-0.416,25.833c-0,0.834 -0,8.334 0.833,13.75l-9.167,0l0,0.834Zm-28.75,-78.334l10,0l0,11.25l-10,0l0,-11.25Zm21.667,51.25c-4.167,0 -20,0 -20,11.25c0,3.334 2.083,9.584 11.667,9.584c5.416,-0 9.166,-2.084 11.666,-5.834c2.5,-3.75 2.5,-6.666 2.5,-14.166c-1.666,-0.417 -3.333,-0.834 -5.833,-0.834m-0.417,-51.25l10.417,0l0,11.25l-10.417,0l0,-11.25Z" style="fill:#3c3c3b;fill-rule:nonzero;"/><path d="M1366.25,345.417l10,-0l0,-11.25l10.417,-3.334l-0,14.584l12.5,-0l-0,7.5l-12.5,-0l-0,32.5c-0,2.5 -0,7.083 7.5,7.083c2.083,0 4.166,-0.417 5,-0.417l-0,7.917c-2.084,0.417 -5,0.833 -8.75,0.833c-9.584,0 -14.167,-2.916 -14.167,-11.666l0,-36.25l-10,-0l0,-7.5Z" style="fill:#3c3c3b;fill-rule:nonzero;"/><path d="M1417.92,384.167c-0,4.166 2.083,10 12.083,10c4.167,-0 7.5,-0.834 9.583,-3.334c1.25,-1.25 1.667,-3.333 1.667,-5c0,-5.416 -3.75,-6.25 -12.083,-8.333c-11.667,-2.5 -21.25,-5 -21.25,-16.25c-0,-10 8.75,-16.667 21.666,-16.667c7.084,0 16.667,2.084 20,8.334c1.25,2.916 1.25,5.833 1.25,7.916l-10.833,0c0.417,-8.333 -7.083,-8.75 -10.833,-8.75c-1.667,0 -11.25,0 -11.25,7.917c-0,5 5,6.25 7.916,7.083c15.417,3.75 18.75,4.584 22.084,7.5c2.916,2.917 4.166,6.667 4.166,10c0,6.25 -3.333,11.25 -7.5,13.75c-5,2.917 -10.833,3.75 -16.666,3.75c-11.25,0 -22.084,-4.583 -21.667,-17.5l11.667,0l-0,-0.416Z" style="fill:#3c3c3b;fill-rule:nonzero;"/><path d="M851.25,491.25c0,-3.333 -0.417,-6.667 -0.417,-10.417l15.834,0l0.416,7.084c1.667,-2.5 6.25,-8.334 17.5,-8.334c12.917,0 16.667,7.917 17.5,10.417c4.584,-8.75 12.084,-10 17.917,-10c11.25,-0 15.833,6.667 17.083,8.75c2.917,4.583 2.917,11.25 2.917,16.25l0,30.833l-16.667,0l0,-32.083c0,-5.833 -0.833,-12.5 -9.583,-12.5c-10,0 -10,9.167 -10,17.083l0,27.5l-16.667,0l0,-32.5c0,-4.166 0,-12.083 -9.166,-12.083c-10.417,-0 -10.417,8.75 -10.417,12.5l0,32.083l-16.667,0l0,-44.583l0.417,-0Z" style="fill:#3c3c3b;fill-rule:nonzero;"/><path d="M965.833,512.5c0,3.75 0,14.583 11.25,14.583c4.167,0 8.334,-1.666 9.584,-7.5l15,0c-0.417,2.5 -0.834,7.084 -5.417,12.084c-4.167,4.166 -11.25,6.25 -19.583,6.25c-4.584,-0 -13.75,-0.834 -19.584,-6.667c-5,-5.417 -7.083,-12.5 -7.083,-21.25c0,-8.75 2.083,-19.583 11.667,-25.833c4.166,-2.917 9.583,-4.584 15.833,-4.584c7.917,0 17.5,2.917 22.5,13.334c3.75,7.5 3.75,15.416 3.333,20l-37.5,-0l0,-0.417Zm21.25,-10c0,-2.5 -0.416,-12.083 -9.583,-12.083c-7.083,-0 -10,5.833 -10.417,12.083l20,0Z" style="fill:#3c3c3b;fill-rule:nonzero;"/><path d="M1051.67,457.5l16.666,0l0,69.583c0,3.334 0.417,6.667 0.417,8.75l-16.667,0l-0.416,-7.916c-1.25,2.083 -2.084,4.166 -5.834,6.25c-4.166,2.5 -8.333,2.916 -10.833,2.916c-15,0 -23.75,-10 -23.75,-27.083c0,-17.917 10,-29.583 24.583,-29.583c10,-0 14.167,5.416 15.834,7.5l-0,-30.417Zm-12.5,69.167c4.583,-0 8.75,-2.917 10.416,-6.25c2.5,-4.584 2.5,-10 2.5,-12.917c0,-10.833 -5,-16.667 -12.083,-16.667c-10.833,0 -12.083,12.917 -12.083,18.334c-0,9.166 2.916,17.5 11.25,17.5" style="fill:#3c3c3b;fill-rule:nonzero;"/><path d="M1081.67,457.5l17.5,0l-0,14.167l-17.5,-0l-0,-14.167Zm0.833,23.333l16.25,0l0,55l-16.25,0l0,-55Z" style="fill:#3c3c3b;fill-rule:nonzero;"/><path d="M1109.58,521.667l28.334,-30l-27.5,-0l-0,-10.834l45.833,0l-0,14.167l-28.333,29.583l29.583,0l0,11.25l-47.917,0l0,-14.166Z" style="fill:#3c3c3b;fill-rule:nonzero;"/><path d="M1168.33,457.5l17.5,0l0,14.167l-17.5,-0l0,-14.167Zm0.417,23.333l16.25,0l0,55l-16.25,0l0,-55Z" style="fill:#3c3c3b;fill-rule:nonzero;"/><path d="M1200,490.833c0,-0.416 0,-6.25 -0.417,-10l15.834,0l0.416,8.334c1.667,-2.5 5.834,-9.584 18.334,-9.584c10.833,0 15.833,6.667 17.083,10.417c1.25,3.333 1.667,6.25 1.667,16.25l-0,29.583l-16.667,0l-0,-34.166c-0,-2.084 -0,-4.167 -0.833,-5.834c-1.25,-2.5 -3.75,-4.583 -7.917,-4.583c-3.75,0 -6.667,1.667 -8.75,4.167c-0.833,1.25 -2.083,4.166 -2.083,8.333l-0,32.083l-16.667,0l-0,-45Z" style="fill:#3c3c3b;fill-rule:nonzero;"/><path d="M325,296.667l-0.417,0.833l0.834,0l-0.417,-0.833Z" style="fill-rule:nonzero;"/><path d="M639.583,297.5l141.667,0l0,-5.417l-143.333,0l-2.084,2.084l3.75,3.333Z" style="fill-rule:nonzero;"/><path d="M476.667,292.083l-146.667,0l-1.25,1.25l4.167,4.167l143.75,0l-0,-5.417Z" style="fill-rule:nonzero;"/><path d="M320.417,292.083l-156.667,0l-0,5.417l153.333,0l4.167,-4.167l-0.833,-1.25Z" style="fill-rule:nonzero;"/><rect x="786.25" y="292.083" width="59.583" height="5"/><path d="M634.167,445l144.583,0l2.083,-2.083l-2.916,-3.334l-143.75,0l-0,5.417Z" style="fill-rule:nonzero;"/><path d="M178.75,439.583l-5,5.417l155.833,0l0,-5.417l-150.833,0Z" style="fill-rule:nonzero;"/><path d="M628.75,439.583l-141.667,0l-4.166,4.167l1.25,1.25l144.583,0l0,-5.417Z" style="fill-rule:nonzero;"/><path d="M786.667,440.833l-0.417,0.417l0,1.25l1.25,1.25l-1.25,0.833l0,0.417l54.167,0l-0,-5.417l-54.167,0l0,1.25l0.417,0Z" style="fill-rule:nonzero;"/><path d="M11.667,439.583l-0,5.417l154.583,0l5,-5.417l-159.583,0Z" style="fill-rule:nonzero;"/><path d="M1282.5,588.333l-496.25,0l0,2.5l-5,0l0,-2.5l-142.083,0l-4.167,4.167l1.25,0.833l646.25,0l0,-5Z" style="fill-rule:nonzero;"/><path d="M165.833,588.333l0,5l156.25,0l5.417,-5l-161.667,0Z" style="fill-rule:nonzero;"/><path d="M334.583,588.333l-5,5l147.084,0l-0,-5l-142.084,0Z" style="fill-rule:nonzero;"/><path d="M324.583,297.5l0.417,-0.833l-3.75,-3.334l-4.167,4.167l-145.833,142.083l-5,5.417l-154.583,150.417l3.75,3.75l158.333,-154.167l5,-5.417l145.833,-142.083Z" style="fill-rule:nonzero;"/><path d="M515,111.25l-3.75,-3.75l-29.167,28.75l0,7.5l32.917,-32.5Z" style="fill-rule:nonzero;"/><path d="M328.75,293.333l1.25,-1.25l146.667,-143.333l-0,-7.5l-151.667,148.333l3.75,3.75Z" style="fill-rule:nonzero;"/><path d="M482.083,734.583l0,-284.583l-2.916,-2.5l-2.5,2.083l-0,290.417l5.416,-5.417Z" style="fill-rule:nonzero;"/><path d="M476.667,141.25l-0,296.667l2.5,2.083l2.916,-2.917l0,-286.25l-5.416,-5l3.75,-3.75l1.666,1.667l0,-7.5l-5.416,5Z" style="fill-rule:nonzero;"/><path d="M476.667,791.25l5.416,0l0,-49.167l-5.416,5l-0,44.167Z" style="fill-rule:nonzero;"/><path d="M634.167,288.75l-0,-142.917l-5.417,0l0,141.25l3.75,3.334l1.667,-1.667Z" style="fill-rule:nonzero;"/><path d="M634.167,586.25l-0,-286.667l-1.667,-2.083l-3.75,3.333l0,285.417l2.5,2.5l2.917,-2.5Z" style="fill-rule:nonzero;"/><path d="M628.75,598.333l0,146.667l5.417,0l-0,-146.25l-2.917,-2.5l-2.5,2.083Z" style="fill-rule:nonzero;"/><path d="M781.25,435.833l5,5l0,-432.916l-5,-0l0,427.916Z" style="fill-rule:nonzero;"/><path d="M786.25,441.25l-0.833,0.833l0.833,0.417l0,-1.25Z" style="fill-rule:nonzero;"/><path d="M781.25,450l0,140.833l5,0l0,-146.25l-5,5.417Z" style="fill-rule:nonzero;"/><path d="M620.833,578.333l0,0.417l0,-0.417Z" style="fill:#ffe50b;fill-rule:nonzero;"/><path d="M786.25,444.583l1.25,-0.833l-1.25,-1.25l-0.833,-0.417l-2.5,2.5l-2.084,-1.666l-2.083,2.083l-144.583,141.25l-2.917,2.5l3.75,3.75l4.167,-4.167l142.083,-138.333l5,-5.417Z" style="fill-rule:nonzero;"/><path d="M482.083,734.583l-5.416,5.417l-46.25,45l3.75,3.75l42.5,-41.667l5.416,-5l146.667,-143.75l2.5,-2.083l-3.75,-3.75" style="fill-rule:nonzero;"/><path d="M627.5,592.5l3.75,3.75l2.917,2.5l150,146.25l3.75,-3.333l-151.667,-148.334l-1.25,-0.833l-6.25,-6.25l-7.917,-7.5l0,-0.417l-136.666,-133.333l-1.25,-1.25l-3.75,3.75l2.916,2.5" style="fill-rule:nonzero;"/><path d="M475.417,443.75l3.75,-3.75l-2.5,-2.083l-143.75,-140.417l-7.917,-7.917l-157.5,-153.75l-3.75,3.75l156.667,152.5l0.833,1.25l3.75,3.334l0.417,0.833" style="fill-rule:nonzero;"/><path d="M635.833,294.167l2.084,-2.084l107.5,-105l-3.75,-3.75l-107.5,105.417l-1.667,1.667l3.333,3.75Z" style="fill-rule:nonzero;"/><path d="M327.5,588.333l-5.417,5l-198.75,194.167l3.75,3.75l202.5,-197.917l5,-5l142.084,-138.75l2.5,-2.083l7.916,-7.917l141.667,-138.75l3.75,-3.333l-3.75,-3.333" style="fill-rule:nonzero;"/><path d="M482.083,437.083l-6.666,6.667" style="fill-rule:nonzero;"/><path d="M628.75,294.167l3.75,3.333l1.667,2.083l143.75,140l2.916,3.334l2.084,1.666l3.75,-3.75l-0.417,0l-5,-5l-141.667,-138.333l-3.75,-3.333l-3.333,-3.75l-3.75,-3.334l-146.667,-143.333l-1.666,-1.667l-3.75,3.75l5.416,5" style="fill-rule:nonzero;"/><path d="M482.083,603.75l133.75,0l11.667,-11.25l-14.167,-14.167l-131.25,0l0,25.417Z" style="fill:#ffe50b;fill-rule:nonzero;"/><path d="M475.417,443.75l-12.084,-12.083l-133.75,-0l0,25.833l131.667,0l14.167,-13.75Z" style="fill:#eb586a;fill-rule:nonzero;"/><path d="M616.25,282.083l-134.167,0l0,25.417l132.5,0l14.167,-13.333l-12.5,-12.084Z" style="fill:#706f6f;fill-rule:nonzero;"/></g></svg>
